static pose
version=1
nRows=1
nColumns=193
inDegrees=no
endheader
time	/jointset/gnd_pelvis/pelvis_tilt/value	/jointset/gnd_pelvis/pelvis_tilt/speed	/jointset/gnd_pelvis/pelvis_list/value	/jointset/gnd_pelvis/pelvis_list/speed	/jointset/gnd_pelvis/pelvis_rot/value	/jointset/gnd_pelvis/pelvis_rot/speed	/jointset/gnd_pelvis/pelvis_tx/value	/jointset/gnd_pelvis/pelvis_tx/speed	/jointset/gnd_pelvis/pelvis_ty/value	/jointset/gnd_pelvis/pelvis_ty/speed	/jointset/gnd_pelvis/pelvis_tz/value	/jointset/gnd_pelvis/pelvis_tz/speed	/jointset/hip_r/hip_flex_r/value	/jointset/hip_r/hip_flex_r/speed	/jointset/hip_r/hip_add_r/value	/jointset/hip_r/hip_add_r/speed	/jointset/hip_r/hip_rot_r/value	/jointset/hip_r/hip_rot_r/speed	/jointset/pf_r/pf_flex_r/value	/jointset/pf_r/pf_flex_r/speed	/jointset/pf_r/pf_rot_r/value	/jointset/pf_r/pf_rot_r/speed	/jointset/pf_r/pf_tilt_r/value	/jointset/pf_r/pf_tilt_r/speed	/jointset/pf_r/pf_tx_r/value	/jointset/pf_r/pf_tx_r/speed	/jointset/pf_r/pf_ty_r/value	/jointset/pf_r/pf_ty_r/speed	/jointset/pf_r/pf_tz_r/value	/jointset/pf_r/pf_tz_r/speed	/jointset/knee_r/knee_flex_r/value	/jointset/knee_r/knee_flex_r/speed	/jointset/knee_r/knee_add_r/value	/jointset/knee_r/knee_add_r/speed	/jointset/knee_r/knee_rot_r/value	/jointset/knee_r/knee_rot_r/speed	/jointset/knee_r/knee_tx_r/value	/jointset/knee_r/knee_tx_r/speed	/jointset/knee_r/knee_ty_r/value	/jointset/knee_r/knee_ty_r/speed	/jointset/knee_r/knee_tz_r/value	/jointset/knee_r/knee_tz_r/speed	/jointset/ankle_r/ankle_flex_r/value	/jointset/ankle_r/ankle_flex_r/speed	/jointset/subtalar_r/subt_angle_r/value	/jointset/subtalar_r/subt_angle_r/speed	/jointset/mtp_r/mtp_angle_r/value	/jointset/mtp_r/mtp_angle_r/speed	/jointset/hip_l/hip_flex_l/value	/jointset/hip_l/hip_flex_l/speed	/jointset/hip_l/hip_add_l/value	/jointset/hip_l/hip_add_l/speed	/jointset/hip_l/hip_rot_l/value	/jointset/hip_l/hip_rot_l/speed	/jointset/pf_l/pf_l_r3/value	/jointset/pf_l/pf_l_r3/speed	/jointset/pf_l/pf_l_tx/value	/jointset/pf_l/pf_l_tx/speed	/jointset/pf_l/pf_l_ty/value	/jointset/pf_l/pf_l_ty/speed	/jointset/knee_l/knee_flex_l/value	/jointset/knee_l/knee_flex_l/speed	/jointset/ankle_l/ankle_flex_l/value	/jointset/ankle_l/ankle_flex_l/speed	/jointset/subtalar_l/subt_angle_l/value	/jointset/subtalar_l/subt_angle_l/speed	/jointset/mtp_l/mtp_angle_l/value	/jointset/mtp_l/mtp_angle_l/speed	/jointset/pelvis_torso/lumbar_ext/value	/jointset/pelvis_torso/lumbar_ext/speed	/jointset/pelvis_torso/lumbar_latbend/value	/jointset/pelvis_torso/lumbar_latbend/speed	/jointset/pelvis_torso/lumbar_rot/value	/jointset/pelvis_torso/lumbar_rot/speed	/jointset/torso_neckhead/neck_ext/value	/jointset/torso_neckhead/neck_ext/speed	/jointset/torso_neckhead/neck_latbend/value	/jointset/torso_neckhead/neck_latbend/speed	/jointset/torso_neckhead/neck_rot/value	/jointset/torso_neckhead/neck_rot/speed	/jointset/acromial_r/arm_add_r/value	/jointset/acromial_r/arm_add_r/speed	/jointset/acromial_r/arm_flex_r/value	/jointset/acromial_r/arm_flex_r/speed	/jointset/acromial_r/arm_rot_r/value	/jointset/acromial_r/arm_rot_r/speed	/jointset/elbow_r/elbow_flex_r/value	/jointset/elbow_r/elbow_flex_r/speed	/jointset/radioulnar_r/pro_sup_r/value	/jointset/radioulnar_r/pro_sup_r/speed	/jointset/radius_hand_r/wrist_flex_r/value	/jointset/radius_hand_r/wrist_flex_r/speed	/jointset/acromial_l/arm_add_l/value	/jointset/acromial_l/arm_add_l/speed	/jointset/acromial_l/arm_flex_l/value	/jointset/acromial_l/arm_flex_l/speed	/jointset/acromial_l/arm_rot_l/value	/jointset/acromial_l/arm_rot_l/speed	/jointset/elbow_l/elbow_flex_l/value	/jointset/elbow_l/elbow_flex_l/speed	/jointset/radioulnar_l/pro_sup_l/value	/jointset/radioulnar_l/pro_sup_l/speed	/jointset/radius_hand_l/wrist_flex_l/value	/jointset/radius_hand_l/wrist_flex_l/speed	/forceset/addbrev_r/activation	/forceset/addbrev_r/fiber_length	/forceset/addlong_r/activation	/forceset/addlong_r/fiber_length	/forceset/addmagProx_r/activation	/forceset/addmagProx_r/fiber_length	/forceset/addmagMid_r/activation	/forceset/addmagMid_r/fiber_length	/forceset/addmagDist_r/activation	/forceset/addmagDist_r/fiber_length	/forceset/addmagIsch_r/activation	/forceset/addmagIsch_r/fiber_length	/forceset/bflh_r/activation	/forceset/bflh_r/fiber_length	/forceset/bfsh_r/activation	/forceset/bfsh_r/fiber_length	/forceset/edl_r/activation	/forceset/edl_r/fiber_length	/forceset/ehl_r/activation	/forceset/ehl_r/fiber_length	/forceset/fdl_r/activation	/forceset/fdl_r/fiber_length	/forceset/fhl_r/activation	/forceset/fhl_r/fiber_length	/forceset/gaslat_r/activation	/forceset/gaslat_r/fiber_length	/forceset/gasmed_r/activation	/forceset/gasmed_r/fiber_length	/forceset/gem_r/activation	/forceset/gem_r/fiber_length	/forceset/glmax1_r/activation	/forceset/glmax1_r/fiber_length	/forceset/glmax2_r/activation	/forceset/glmax2_r/fiber_length	/forceset/glmax3_r/activation	/forceset/glmax3_r/fiber_length	/forceset/glmed1_r/activation	/forceset/glmed1_r/fiber_length	/forceset/glmed2_r/activation	/forceset/glmed2_r/fiber_length	/forceset/glmed3_r/activation	/forceset/glmed3_r/fiber_length	/forceset/glmin1_r/activation	/forceset/glmin1_r/fiber_length	/forceset/glmin2_r/activation	/forceset/glmin2_r/fiber_length	/forceset/glmin3_r/activation	/forceset/glmin3_r/fiber_length	/forceset/grac_r/activation	/forceset/grac_r/fiber_length	/forceset/iliacus_r/activation	/forceset/iliacus_r/fiber_length	/forceset/pect_r/activation	/forceset/pect_r/fiber_length	/forceset/perbrev_r/activation	/forceset/perbrev_r/fiber_length	/forceset/perlong_r/activation	/forceset/perlong_r/fiber_length	/forceset/pertert_r/activation	/forceset/pertert_r/fiber_length	/forceset/piri_r/activation	/forceset/piri_r/fiber_length	/forceset/psoas_r/activation	/forceset/psoas_r/fiber_length	/forceset/quadfem_r/activation	/forceset/quadfem_r/fiber_length	/forceset/recfem_r/activation	/forceset/recfem_r/fiber_length	/forceset/sart_r/activation	/forceset/sart_r/fiber_length	/forceset/semimem_r/activation	/forceset/semimem_r/fiber_length	/forceset/semiten_r/activation	/forceset/semiten_r/fiber_length	/forceset/soleus_r/activation	/forceset/soleus_r/fiber_length	/forceset/tfl_r/activation	/forceset/tfl_r/fiber_length	/forceset/tibant_r/activation	/forceset/tibant_r/fiber_length	/forceset/tibpost_r/activation	/forceset/tibpost_r/fiber_length	/forceset/vasint_r/activation	/forceset/vasint_r/fiber_length	/forceset/vaslat_r/activation	/forceset/vaslat_r/fiber_length	/forceset/vasmed_r/activation	/forceset/vasmed_r/fiber_length
      1.00000000	     -0.21357584	      0.00000000	     -0.05131417	      0.00000000	     -0.01950405	      0.00000000	      0.61264285	      0.00000000	      1.15490861	      0.00000000	     -2.11435782	      0.00000000	      0.12682733	      0.00000000	     -0.04576056	      0.00000000	     -0.04631788	      0.00000000	      0.00000000	      0.00000000	      0.00000000	      0.00000000	      0.00000000	      0.00000000	      0.05300000	      0.00000000	      0.00500000	      0.00000000	      0.00400000	      0.00000000	     -0.07735937	      0.00000000	      0.00000274	      0.00000000	     -0.00000123	      0.00000000	     -0.00000026	      0.00000000	     -0.00000328	      0.00000000	     -0.00001048	      0.00000000	     -0.06252270	      0.00000000	      0.01813518	      0.00000000	      0.00000000	      0.00000000	      0.10381904	      0.00000000	      0.19951971	      0.00000000	     -0.06172748	      0.00000000	      0.00113686	      0.00000000	      0.04435000	      0.00000000	     -0.41871200	      0.00000000	     -0.13549606	      0.00000000	     -0.09529772	      0.00000000	      0.02414286	      0.00000000	      0.00000000	      0.00000000	      0.02286482	      0.00000000	      0.06486972	      0.00000000	     -0.06878395	      0.00000000	      0.00000000	      0.00000000	      0.00000000	      0.00000000	      0.00000000	      0.00000000	     -0.37495218	      0.00000000	      0.13773542	      0.00000000	     -0.04358558	      0.00000000	      0.07432487	      0.00000000	      1.05186171	      0.00000000	      0.00000000	      0.00000000	     -0.40818964	      0.00000000	      0.08695611	      0.00000000	     -0.05346635	      0.00000000	      0.05467009	      0.00000000	      1.05096569	      0.00000000	      0.00000000	      0.00000000	      0.01000000	      0.10000000	      0.01000000	      0.10000000	      0.01000000	      0.10000000	      0.01000000	      0.10000000	      0.01000000	      0.10000000	      0.01000000	      0.10000000	      0.01000000	      0.10000000	      0.01000000	      0.10000000	      0.01000000	      0.10000000	      0.01000000	      0.10000000	      0.01000000	      0.10000000	      0.01000000	      0.10000000	      0.01000000	      0.10000000	      0.01000000	      0.10000000	      0.01000000	      0.10000000	      0.01000000	      0.10000000	      0.01000000	      0.10000000	      0.01000000	      0.10000000	      0.01000000	      0.10000000	      0.01000000	      0.10000000	      0.01000000	      0.10000000	      0.01000000	      0.10000000	      0.01000000	      0.10000000	      0.01000000	      0.10000000	      0.01000000	      0.10000000	      0.01000000	      0.10000000	      0.01000000	      0.10000000	      0.01000000	      0.10000000	      0.01000000	      0.10000000	      0.01000000	      0.10000000	      0.01000000	      0.10000000	      0.01000000	      0.10000000	      0.01000000	      0.10000000	      0.01000000	      0.10000000	      0.01000000	      0.17165249	      0.01000000	      0.10000000	      0.01000000	      0.10000000	      0.01000000	      0.10000000	      0.01000000	      0.10000000	      0.01000000	      0.10000000	      0.01000000	      0.10000000	      0.01000000	      0.10000000	      0.01000000	      0.10000000	      0.01000000	      0.10000000
